<?xml version="1.0" standalone="no"?><!DOCTYPE svg PUBLIC "-//W3C//DTD SVG 1.1//EN" "http://www.w3.org/Graphics/SVG/1.1/DTD/svg11.dtd"><svg t="1588737467812" class="icon" viewBox="0 0 1024 1024" version="1.1" xmlns="http://www.w3.org/2000/svg" p-id="7866" xmlns:xlink="http://www.w3.org/1999/xlink" width="200" height="200"><defs><style type="text/css"></style></defs><path d="M682.666667 896l-149.333334-42.666667L384 896v-166.4c-102.4-55.466667-170.666667-162.133333-170.666667-281.6C213.333333 273.066667 358.4 128 533.333333 128S853.333333 273.066667 853.333333 448c0 123.733333-68.266667 230.4-170.666666 281.6V896z m-42.666667-55.466667v-89.6c-25.6 8.533333-55.466667 17.066667-85.333333 17.066667v51.2l85.333333 21.333333z m-213.333333 0l85.333333-25.6V768c-29.866667 0-59.733333-8.533333-85.333333-17.066667v89.6z m106.666666-115.2c153.6 0 277.333333-123.733333 277.333334-277.333333S686.933333 170.666667 533.333333 170.666667 256 294.4 256 448 379.733333 725.333333 533.333333 725.333333z m0-85.333333C426.666667 640 341.333333 554.666667 341.333333 448S426.666667 256 533.333333 256 725.333333 341.333333 725.333333 448 640 640 533.333333 640z m0-42.666667c81.066667 0 149.333333-68.266667 149.333334-149.333333S614.4 298.666667 533.333333 298.666667 384 366.933333 384 448s68.266667 149.333333 149.333333 149.333333z" fill="#1296db" p-id="7867"></path></svg>